<svg xmlns="http://www.w3.org/2000/svg" viewBox="0 0 512 512"><path d="M421.26,99.89a62.44,62.44,0,0,0-62.48,48.59,62.23,62.23,0,0,0-115.7-3.78A62.44,62.44,0,0,0,186,107.25H135.16a11.56,11.56,0,0,0-11.5,11.5v50.07c0,16.83-13.11,31.21-29.93,31.91A31.17,31.17,0,0,1,61.4,170.78V123a15.53,15.53,0,0,0-15.5-15.57h-.07A15.55,15.55,0,0,0,30.26,122.9V123h0v45.51c0,34.05,26.78,62.62,60.8,63.39A62.28,62.28,0,0,0,154.79,171V150a11.5,11.5,0,0,1,11.5-11.5h18.93c16.83,0,31.21,13.11,31.91,30a31.21,31.21,0,0,1-30,32.35H163.21a15.85,15.85,0,0,0-16.06,14.44,15.56,15.56,0,0,0,14.5,16.55H186a62.49,62.49,0,0,0,57.16-37.45,62.23,62.23,0,0,0,114.15,0v20.88a15.87,15.87,0,0,0,14.52,16,15.59,15.59,0,0,0,16.55-14.52v-53.9c0-16.9,13.1-31.28,29.94-31.9a31.2,31.2,0,0,1,32.33,30v54.35a15.85,15.85,0,0,0,14.51,16.06,15.55,15.55,0,0,0,16.55-14.48v0a5.24,5.24,0,0,0,0-1.12V163.18C481.78,129.27,455.13,100.8,421.26,99.89ZM300.16,200.65a31.14,31.14,0,1,1,31.13-31.13h0A31.15,31.15,0,0,1,300.16,200.65Z" style="fill:#666"/><path d="M29.48,410.6V320.23h8.28v41.41H89V320.23h8.25V410.6H89V369.06H37.73V410.6Z" style="fill:#666"/><path d="M138.53,412.12a25.81,25.81,0,0,1-11.2-2.4,19.47,19.47,0,0,1-8.07-7,19.8,19.8,0,0,1-3-11.1,17.42,17.42,0,0,1,1.9-8.47,15.35,15.35,0,0,1,5.39-5.64,29.62,29.62,0,0,1,8.28-3.49,76.51,76.51,0,0,1,10.5-2q5.69-.69,9.66-1.23a17.56,17.56,0,0,0,6-1.68,3.9,3.9,0,0,0,2.07-3.7v-1.59q0-6.9-4.14-10.92t-11.84-4c-4.89,0-8.86,1.07-11.94,3.22a17.78,17.78,0,0,0-6.46,7.59l-7.46-2.69a22.15,22.15,0,0,1,6.36-8.89,25.41,25.41,0,0,1,9.09-4.83,35.89,35.89,0,0,1,10.19-1.48,35.08,35.08,0,0,1,8.09,1,23.4,23.4,0,0,1,7.79,3.54,18.2,18.2,0,0,1,5.86,6.9,24.68,24.68,0,0,1,2.25,11.22V410.6H160V399.86h-.48a21.67,21.67,0,0,1-11.16,10.45A24.64,24.64,0,0,1,138.53,412.12Zm1.07-7.19a20.54,20.54,0,0,0,10.85-2.76,19.26,19.26,0,0,0,7.08-7.39A21.06,21.06,0,0,0,160,384.61V374.8a7.88,7.88,0,0,1-2.92,1.5,38.73,38.73,0,0,1-4.72,1.17q-2.67.51-5.32.86c-1.76.24-3.35.44-4.76.61a43.8,43.8,0,0,0-9.79,2.21,14.34,14.34,0,0,0-6.21,4.14,10.25,10.25,0,0,0-2.16,6.73q0,6.21,4.41,9.56a17.88,17.88,0,0,0,11,3.35Z" style="fill:#666"/><path d="M234.27,357.68l-7.19,2a18.77,18.77,0,0,0-3-5.52,13.68,13.68,0,0,0-5-3.93,18,18,0,0,0-7.69-1.45q-6.92,0-11.3,3.26a10,10,0,0,0-4.41,8.43,9.05,9.05,0,0,0,3,7.08q3,2.71,9.33,4.3l10.24,2.52q8.52,2.07,12.77,6.57a15.76,15.76,0,0,1,4.25,11.29,17.05,17.05,0,0,1-3.17,10.19,21.17,21.17,0,0,1-8.84,7A31.78,31.78,0,0,1,210.1,412q-9.91,0-16.36-4.48a20.35,20.35,0,0,1-8.28-12.94l7.53-1.85a15.2,15.2,0,0,0,5.71,9.13q4.26,3.11,11.23,3.09,7.81,0,12.49-3.51a10.64,10.64,0,0,0,4.7-8.76,9.56,9.56,0,0,0-2.76-6.9q-2.76-2.76-8.29-4.14L205,379q-8.82-2.12-13.06-6.71a16.11,16.11,0,0,1-4.23-11.38,16.49,16.49,0,0,1,3-9.86,20.45,20.45,0,0,1,8.37-6.67,29.15,29.15,0,0,1,12.18-2.43q9.3,0,14.88,4.21A23.48,23.48,0,0,1,234.27,357.68Z" style="fill:#666"/><path d="M260.29,368.23V410.6h-7.85V320.23h7.85v33.22H261a19,19,0,0,1,7.41-8.41q5-3.14,12.68-3.14a25,25,0,0,1,12.09,2.83,19.71,19.71,0,0,1,8.12,8.33,29.12,29.12,0,0,1,2.91,13.59v44h-7.9V367.19q0-8.37-4.66-13.21t-12.54-4.83a20,20,0,0,0-9.67,2.3,16.74,16.74,0,0,0-6.68,6.59A20.31,20.31,0,0,0,260.29,368.23Z" style="fill:#666"/><path d="M326.56,410.6V320.23h8.28v82.93H377.9v7.44Z" style="fill:#666"/><path d="M398.91,331.17a5.76,5.76,0,0,1-4.14-1.66,5.44,5.44,0,0,1-.28-7.7,3.7,3.7,0,0,1,.28-.28,5.8,5.8,0,0,1,4.14-1.66,5.88,5.88,0,0,1,4.14,1.66,5.46,5.46,0,0,1,.28,7.71l-.28.27A5.84,5.84,0,0,1,398.91,331.17Zm-4,79.43V342.81h7.91V410.6Z" style="fill:#666"/><path d="M425.24,410.6V320.23h7.93v35.51h.69a29.75,29.75,0,0,1,3.81-6.27,20.21,20.21,0,0,1,6.54-5.4,21.74,21.74,0,0,1,10.3-2.18,25,25,0,0,1,14.64,4.39A28.86,28.86,0,0,1,479,358.54a44.57,44.57,0,0,1,3.53,18.33,45.18,45.18,0,0,1-3.51,18.4,28.87,28.87,0,0,1-9.79,12.31A24.73,24.73,0,0,1,454.64,412a21.66,21.66,0,0,1-10.3-2.21,20.44,20.44,0,0,1-6.64-5.44,30.47,30.47,0,0,1-3.88-6.33h-1V410.6ZM433,376.78a40,40,0,0,0,2.45,14.54,22.41,22.41,0,0,0,7.05,9.92,19.27,19.27,0,0,0,22.61-.13,23,23,0,0,0,7.1-10.08,39.56,39.56,0,0,0,2.43-14.25,38.62,38.62,0,0,0-2.41-14.07,22.68,22.68,0,0,0-7.07-9.95,19.58,19.58,0,0,0-22.7-.13,22.17,22.17,0,0,0-7,9.79A39.32,39.32,0,0,0,433,376.74Z" style="fill:#666"/></svg>