<svg id="レイヤー_1" data-name="レイヤー 1" xmlns="http://www.w3.org/2000/svg" viewBox="0 0 1400 256"><defs><style>.cls-1{fill:#666;}</style></defs><g id="Logo"><path id="Udon" class="cls-1" d="M504.87,54.36a69.67,69.67,0,0,0-69.73,54.23A69.46,69.46,0,0,0,306,104.37a69.68,69.68,0,0,0-63.71-41.8H185.56a12.91,12.91,0,0,0-12.84,12.84v55.88c0,18.78-14.63,34.83-33.41,35.61a34.79,34.79,0,0,1-36.08-33.42V80.11A17.34,17.34,0,0,0,85.85,62.73h0A17.34,17.34,0,0,0,68.48,80.11h0V130.9c0,38,29.89,69.89,67.85,70.75a69.53,69.53,0,0,0,71.14-67.93V110.24A12.85,12.85,0,0,1,220.31,97.4h21.13c18.78,0,34.83,14.64,35.61,33.5A34.82,34.82,0,0,1,243.55,167H216.86a17.7,17.7,0,0,0-17.92,16.12,17.36,17.36,0,0,0,16.2,18.47H242.3a69.73,69.73,0,0,0,63.79-41.79,69.47,69.47,0,0,0,127.41,0V183.1A17.7,17.7,0,0,0,449.7,201a17.4,17.4,0,0,0,18.47-16.2V124.64c0-18.86,14.63-34.91,33.42-35.61a34.81,34.81,0,0,1,36.08,33.49v60.66a17.7,17.7,0,0,0,16.2,17.92,17.35,17.35,0,0,0,18.47-16.2,6.53,6.53,0,0,0,0-1.25V125C572.42,87.15,542.68,55.37,504.87,54.36ZM369.71,166.82a34.75,34.75,0,1,1,34.75-34.75h0A34.77,34.77,0,0,1,369.71,166.82Z"/><g id="HashLib"><path class="cls-1" d="M665.09,195V64.05h12v60h74.27v-60h11.95V195H751.32V134.81H677.05V195Z"/><path class="cls-1" d="M823.1,197.2a37.44,37.44,0,0,1-16.23-3.48,28.18,28.18,0,0,1-11.7-10.1q-4.35-6.62-4.35-16.08a25.13,25.13,0,0,1,2.75-12.27,22.28,22.28,0,0,1,7.8-8.18,43.06,43.06,0,0,1,12-5.05,110.28,110.28,0,0,1,15.22-2.88q8.24-1,14-1.79a25.51,25.51,0,0,0,8.73-2.43,5.68,5.68,0,0,0,3-5.37v-2.3q0-10-6-15.82t-17.16-5.78q-10.61,0-17.29,4.66a25.79,25.79,0,0,0-9.36,11l-10.81-3.9a32.19,32.19,0,0,1,9.21-12.88,37,37,0,0,1,13.17-7,52,52,0,0,1,14.76-2.14,50.09,50.09,0,0,1,11.73,1.47A33.8,33.8,0,0,1,853.85,102a26.35,26.35,0,0,1,8.5,10q3.25,6.42,3.26,16.26V195H854.23V179.43h-.7a31.14,31.14,0,0,1-6.07,8.44,31.6,31.6,0,0,1-10.1,6.71A35.73,35.73,0,0,1,823.1,197.2Zm1.54-10.42a29.7,29.7,0,0,0,15.72-4,27.8,27.8,0,0,0,10.26-10.7,30.49,30.49,0,0,0,3.61-14.74V143.12A11.29,11.29,0,0,1,850,145.3a57,57,0,0,1-6.84,1.69c-2.58.49-5.14.91-7.7,1.25s-4.86.64-6.9.89a63.56,63.56,0,0,0-14.19,3.2,20.63,20.63,0,0,0-9,6,14.84,14.84,0,0,0-3.13,9.75q0,9,6.39,13.84T824.64,186.78Z"/><path class="cls-1" d="M961.81,118.32l-10.42,2.94a27.28,27.28,0,0,0-4.35-8,19.82,19.82,0,0,0-7.32-5.69,26.31,26.31,0,0,0-11.15-2.11q-10,0-16.36,4.73a14.55,14.55,0,0,0-6.4,12.21,13.13,13.13,0,0,0,4.38,10.26q4.38,3.93,13.52,6.23l14.83,3.65q12.35,3,18.51,9.52t6.16,16.37a24.76,24.76,0,0,1-4.6,14.76,30.68,30.68,0,0,1-12.81,10.13,46.2,46.2,0,0,1-19,3.68q-14.38,0-23.71-6.49t-12-18.76L902,169.08q2.12,8.74,8.28,13.23t16.27,4.47q11.31,0,18.09-5.08T951.45,169a13.78,13.78,0,0,0-4-10q-4-4-12-6l-16-3.84q-12.78-3.06-18.92-9.71a23.42,23.42,0,0,1-6.14-16.5,23.91,23.91,0,0,1,4.41-14.28A29.66,29.66,0,0,1,910.93,99a42.21,42.21,0,0,1,17.64-3.51q13.48,0,21.57,6.1A33.93,33.93,0,0,1,961.81,118.32Z"/><path class="cls-1" d="M999.52,133.6V195H988.14V64.05h11.38v48.14h1A27.48,27.48,0,0,1,1011.25,100q7.25-4.53,18.38-4.54a36.26,36.26,0,0,1,17.51,4.09,28.52,28.52,0,0,1,11.76,12.08q4.21,8,4.22,19.69V195h-11.44v-62.9q0-12.14-6.75-19.14t-18.18-7a28.88,28.88,0,0,0-14,3.33,24.23,24.23,0,0,0-9.68,9.55A29.4,29.4,0,0,0,999.52,133.6Z"/><path class="cls-1" d="M1095.53,195V64.05h12V184.22h62.39V195Z"/><path class="cls-1" d="M1200.36,79.91a8.39,8.39,0,0,1-6-2.4,7.9,7.9,0,0,1,0-11.57,8.39,8.39,0,0,1,6-2.4,8.48,8.48,0,0,1,6,2.4,7.9,7.9,0,0,1,0,11.57A8.48,8.48,0,0,1,1200.36,79.91ZM1194.54,195V96.78H1206V195Z"/><path class="cls-1" d="M1238.52,195V64.05H1250v51.46h1a43,43,0,0,1,5.53-9.08A29.27,29.27,0,0,1,1266,98.6q5.91-3.16,14.92-3.16a36.2,36.2,0,0,1,21.22,6.36,41.88,41.88,0,0,1,14.26,17.77q5.11,11.42,5.11,26.56t-5.08,26.65a42,42,0,0,1-14.19,17.84,35.87,35.87,0,0,1-21.13,6.39q-8.94,0-14.92-3.2a29.57,29.57,0,0,1-9.62-7.89,44.55,44.55,0,0,1-5.63-9.17h-1.4V195Zm11.25-49a58,58,0,0,0,3.55,21.06,32.65,32.65,0,0,0,10.22,14.38,27.94,27.94,0,0,0,32.76-.19,33.37,33.37,0,0,0,10.29-14.61,57.33,57.33,0,0,0,3.52-20.64,56.34,56.34,0,0,0-3.49-20.39,32.84,32.84,0,0,0-10.25-14.42q-6.78-5.34-16.62-5.34a25.85,25.85,0,0,0-16.27,5.15,32.15,32.15,0,0,0-10.2,14.19A57.27,57.27,0,0,0,1249.77,145.94Z"/></g></g></svg>